<?xml version="1.0" encoding="UTF-8" standalone="no" ?>
<!DOCTYPE svg PUBLIC "-//W3C//DTD SVG 1.1//EN" "http://www.w3.org/Graphics/SVG/1.1/DTD/svg11.dtd">
<svg xmlns="http://www.w3.org/2000/svg" xmlns:xlink="http://www.w3.org/1999/xlink" version="1.1" width="1280" height="1024" viewBox="0 0 1280 1024" xml:space="preserve">
<desc>Created with Fabric.js 5.3.0</desc>
<defs>
</defs>
<g transform="matrix(1 0 0 1 640 512)" id="background-logo"  >
<rect style="stroke: none; stroke-width: 0; stroke-dasharray: none; stroke-linecap: butt; stroke-dashoffset: 0; stroke-linejoin: miter; stroke-miterlimit: 4; fill: rgb(220,244,252); fill-rule: nonzero; opacity: 1;"  paint-order="stroke"  x="-640" y="-512" rx="0" ry="0" width="1280" height="1024" />
</g>
<g transform="matrix(1.9211538461538462 0 0 1.9211538461538462 640 374.476362149015)" id="logo-logo"  >
<g style=""  paint-order="stroke"   >
		<g transform="matrix(6.6875764200668755 0 0 6.6875764200668755 0 0)"  >
<polygon style="stroke: none; stroke-width: 1; stroke-dasharray: none; stroke-linecap: butt; stroke-dashoffset: 0; stroke-linejoin: miter; stroke-miterlimit: 4; fill: rgb(7,42,138); fill-rule: nonzero; opacity: 1;"  paint-order="stroke"  points="-24.05175779999996,6.7470703000000185 -3.41601559999998,14.34375 21.500976500000036,6.292968799999983 21.500976500000036,5.1591796999999815 -3.359374999999943,13.06835940000002 -10.27539059999998,10.573242199999981 -10.27539059999998,2.8349608999999987 -21.273437499999943,-0.5664062000000172 -21.273437499999943,6.57617190000002 -24.05175779999996,5.55664059999998 -24.05175779999996,-5.499023399999999 -22.60644529999996,-5.074218700000017 -21.216796899999963,-4.6484375 -15.68945309999998,-3.003906200000017 -15.68945309999998,-7.22851559999998 -3.41601559999998,3.96875 -3.359374999999943,2.4384766000000013 -18.12695309999998,-10.828125 -14.953124999999943,-11.65039059999998 -0.41113279999996166,1.53125 0.8359375000000568,1.1337891000000013 -13.677734399999963,-12.018554699999981 -10.871093799999983,-12.75585940000002 3.5576172000000383,0.28320309999998017 4.804687500000057,-0.08496089999999867 -9.566406299999983,-13.124023399999999 -6.7607421999999815,-13.86132809999998 7.526367200000038,-0.9355469000000198 8.773437500000057,-1.3037108999999987 -5.457031299999983,-14.20117190000002 -2.65039059999998,-14.96679690000002 11.494140600000037,-2.15429690000002 12.742187500000057,-2.550781200000017 -1.3749999999999432,-15.30664059999998 1.4599609000000555,-16.07226559999998 15.462890600000037,-3.37304690000002 16.709960900000056,-3.769531200000017 2.7353515000000357,-16.41210940000002 5.541992200000038,-17.17773440000002 19.431640600000037,-4.6201171999999815 20.678710900000056,-4.988281200000017 6.845703100000037,-17.51757809999998 9.311523400000056,-18.16992190000002 24.05175780000002,-5.04492190000002 24.05175780000002,9.297851600000001 -3.5009765999999445,18.16992190000002 -24.05175779999996,10.573242199999981 " />
</g>
		<g transform="matrix(6.6875764200668755 0 0 6.6875764200668755 -130.80285591573306 -34.21505137492912)"  >
<polygon style="stroke: none; stroke-width: 1; stroke-dasharray: none; stroke-linecap: butt; stroke-dashoffset: 0; stroke-linejoin: miter; stroke-miterlimit: 4; fill: rgb(14,36,96); fill-rule: evenodd; opacity: 1;"  paint-order="stroke"  points="-4.492675749999989,-0.3828125 3.869628949999992,-2.1123046999999815 4.492675749999989,0.24121089999999867 3.869628949999992,2.1123046999999815 0.3833007499999894,1.7148437000000172 " />
</g>
</g>
</g>
<g transform="matrix(1.9211538461538462 0 0 1.9211538461538462 638.952219241827 701.8198308182709)" id="text-logo"  >
<g style=""  paint-order="stroke"   >
		<g transform="matrix(1 0 0 1 0 0)" id="text-logo-path-0"  >
<filter id="SVGID_102659" y="-20%" height="140%" x="-20.811174743263194%" width="141.6223494865264%" >
	<feGaussianBlur in="SourceAlpha" stdDeviation="0"></feGaussianBlur>
	<feOffset dx="-5" dy="0" result="oBlur" ></feOffset>
	<feFlood flood-color="rgb(0,0,0)" flood-opacity="1"/>
	<feComposite in2="oBlur" operator="in" />
	<feMerge>
		<feMergeNode></feMergeNode>
		<feMergeNode in="SourceGraphic"></feMergeNode>
	</feMerge>
</filter>
<path style="stroke: none; stroke-width: 0; stroke-dasharray: none; stroke-linecap: butt; stroke-dashoffset: 0; stroke-linejoin: miter; stroke-miterlimit: 4; fill: rgb(7,42,138); fill-rule: nonzero; opacity: 1;filter: url(#SVGID_102659);"  paint-order="stroke"  transform=" translate(-308.855, 21.615)" d="M 31.46 0 L 44.77 0 L 51.59 -42.9 L 40.7 -42.9 L 37.4 -14.41 L 32.56 -42.9 L 19.69 -42.9 L 14.85 -14.41 L 11.55 -42.9 L 0.66 -42.9 L 7.48 0 L 20.73 0 L 26.13 -30.91 Z M 70.29 0 L 79.42 0 L 78.87 -8.25 L 78.87 -18.7 C 78.87 -25.91 75.84 -29.92 65.89 -29.92 C 55.99 -29.92 52.97 -25.3 52.97 -20.02 L 52.97 -19.52 L 62.48 -19.52 C 62.48 -20.9 63.14 -22.33 65.62 -22.33 C 67.81 -22.33 68.64 -21.34 68.75 -19.25 L 62.59 -18.26 C 56.1 -17.27 51.87 -15.13 51.87 -8.8 L 51.87 -8.25 C 51.87 -3.58 54.07 0.77 60.94 0.77 C 64.79 0.77 67.7 -0.6 69.74 -2.75 Z M 64.79 -7.37 C 62.7 -7.37 61.93 -8.58 61.93 -9.73 L 61.93 -10.06 C 61.93 -11.38 62.43 -12.43 64.79 -12.81 L 68.75 -13.42 L 68.75 -8.96 C 67.92 -8.2 66.5 -7.37 64.79 -7.37 Z M 100.87 -29.92 C 97.57 -29.92 94.99 -28.32 93.23 -25.91 L 92.62 -29.15 L 83.49 -29.15 L 84.04 -20.9 L 84.04 0 L 94.16 0 L 94.16 -17.6 C 94.82 -18.43 96.75 -19.52 100.05 -19.52 L 101.7 -19.52 L 101.7 -29.86 C 101.42 -29.92 101.15 -29.92 100.87 -29.92 Z M 131.4 -11 L 131.4 -15.4 C 131.4 -23.93 127 -29.92 117.59 -29.92 C 108.19 -29.92 103.35 -23.93 103.35 -15.4 L 103.35 -13.75 C 103.35 -5.22 107.97 0.77 117.92 0.77 C 126.39 0.77 131.4 -3.3 131.4 -9.13 L 131.4 -9.35 L 121.88 -9.35 C 121.88 -7.97 120.18 -6.82 117.98 -6.82 C 115.45 -6.82 113.8 -7.7 113.47 -11 Z M 117.37 -22.33 C 119.74 -22.33 121 -21.23 121.28 -18.15 L 113.47 -18.15 C 113.74 -21.23 115.01 -22.33 117.37 -22.33 Z M 145.64 -44 L 135.52 -44 L 135.52 0 L 145.64 0 L 145.64 -18.98 C 146.19 -19.8 147.68 -21.23 149.88 -21.23 C 152.63 -21.23 152.96 -19.25 152.96 -17.88 L 152.96 0 L 163.08 0 L 163.08 -19.52 C 163.08 -24.75 160.88 -29.92 154 -29.92 C 150.26 -29.92 147.51 -28.6 145.64 -26.57 Z M 180.9 0.77 C 190.52 0.77 194.92 -4.95 194.92 -13.47 L 194.92 -15.68 C 194.92 -24.2 190.52 -29.92 180.9 -29.92 C 171.27 -29.92 166.87 -24.2 166.87 -15.68 L 166.87 -13.47 C 166.87 -4.95 171.27 0.77 180.9 0.77 Z M 180.9 -7.92 C 178.15 -7.92 176.94 -9.9 176.94 -13.47 L 176.94 -15.68 C 176.94 -19.25 178.15 -21.23 180.9 -21.23 C 183.65 -21.23 184.86 -19.25 184.86 -15.68 L 184.86 -13.47 C 184.86 -9.9 183.65 -7.92 180.9 -7.92 Z M 198.72 -29.15 L 198.72 -9.63 C 198.72 -4.4 200.92 0.77 207.79 0.77 C 212.14 0.77 215.11 -0.99 216.98 -3.58 L 217.69 0 L 226.82 0 L 226.27 -8.25 L 226.27 -29.15 L 216.15 -29.15 L 216.15 -10.18 C 215.6 -9.35 214.12 -7.92 211.92 -7.92 C 209.17 -7.92 208.84 -9.9 208.84 -11.28 L 208.84 -29.15 Z M 243.59 -6.82 C 241.5 -6.82 240.63 -7.75 240.63 -9.35 L 230.56 -9.35 L 230.56 -9.07 C 230.56 -3.02 235.02 0.77 243.59 0.77 C 252.34 0.77 256.63 -3.02 256.63 -9.4 L 256.63 -9.96 C 256.63 -16.34 251.35 -17.66 244.04 -18.26 C 241.56 -18.48 240.84 -18.98 240.84 -20.35 C 240.84 -21.5 241.78 -22.33 243.59 -22.33 C 245.41 -22.33 246.34 -21.29 246.34 -19.52 L 256.25 -19.52 L 256.25 -19.8 C 256.25 -26.23 252.34 -29.92 243.59 -29.92 C 236.67 -29.92 230.95 -27.23 230.95 -20.02 L 230.95 -19.47 C 230.95 -13.64 234.85 -11.82 243.21 -11.17 C 245.96 -10.95 246.51 -10.18 246.51 -8.96 C 246.51 -7.81 245.8 -6.82 243.59 -6.82 Z M 287.6 -11 L 287.6 -15.4 C 287.6 -23.93 283.19 -29.92 273.79 -29.92 C 264.38 -29.92 259.55 -23.93 259.55 -15.4 L 259.55 -13.75 C 259.55 -5.22 264.17 0.77 274.12 0.77 C 282.59 0.77 287.6 -3.3 287.6 -9.13 L 287.6 -9.35 L 278.08 -9.35 C 278.08 -7.97 276.38 -6.82 274.18 -6.82 C 271.65 -6.82 270 -7.7 269.67 -11 Z M 273.57 -22.33 C 275.94 -22.33 277.2 -21.23 277.48 -18.15 L 269.67 -18.15 C 269.94 -21.23 271.21 -22.33 273.57 -22.33 Z M 315.98 -17.21 C 321.75 -16.45 322.91 -14.96 322.91 -12.48 L 322.91 -12.27 C 322.91 -10.18 321.42 -8.25 317.85 -8.25 L 317.3 -8.25 C 313.72 -8.25 312.07 -10.12 312.07 -14.85 L 301.62 -14.85 L 301.62 -14.36 C 301.62 -3.58 307.12 0.77 317.57 0.77 C 328.08 0.77 333.52 -4.13 333.52 -12.54 L 333.52 -13.14 C 333.52 -21.56 328.52 -24.53 319.17 -25.8 C 313.39 -26.57 312.51 -27.89 312.51 -30.52 L 312.51 -30.75 C 312.51 -32.95 314 -34.65 317.02 -34.65 L 317.57 -34.65 C 321.42 -34.65 322.8 -32.34 322.8 -27.5 L 333.25 -27.5 L 333.25 -28.66 C 333.25 -39.05 328.41 -43.67 317.57 -43.67 C 307.23 -43.67 301.9 -38.45 301.9 -30.47 L 301.9 -29.86 C 301.9 -21.45 306.63 -18.48 315.98 -17.21 Z M 350.57 0.77 C 360.19 0.77 364.6 -4.95 364.6 -13.47 L 364.6 -15.68 C 364.6 -24.2 360.19 -29.92 350.57 -29.92 C 340.94 -29.92 336.55 -24.2 336.55 -15.68 L 336.55 -13.47 C 336.55 -4.95 340.94 0.77 350.57 0.77 Z M 350.57 -7.92 C 347.82 -7.92 346.61 -9.9 346.61 -13.47 L 346.61 -15.68 C 346.61 -19.25 347.82 -21.23 350.57 -21.23 C 353.32 -21.23 354.53 -19.25 354.53 -15.68 L 354.53 -13.47 C 354.53 -9.9 353.32 -7.92 350.57 -7.92 Z M 368.61 0 L 378.73 0 L 378.73 -44 L 368.61 -44 Z M 383.79 -29.15 L 383.79 -9.63 C 383.79 -4.4 385.99 0.77 392.87 0.77 C 397.21 0.77 400.18 -0.99 402.05 -3.58 L 402.76 0 L 411.89 0 L 411.35 -8.25 L 411.35 -29.15 L 401.23 -29.15 L 401.23 -10.18 C 400.68 -9.35 399.19 -7.92 396.99 -7.92 C 394.24 -7.92 393.91 -9.9 393.91 -11.28 L 393.91 -29.15 Z M 429.44 -29.15 L 429.44 -37.4 L 419.32 -37.4 L 419.32 -29.15 L 414.92 -29.15 L 414.92 -20.35 L 419.32 -20.35 L 419.32 -10.72 C 419.32 -2.2 424 0.77 430.98 0.77 C 433.73 0.77 435.38 0.28 435.88 0 L 435.88 -8.25 C 435.6 -8.14 434.23 -7.92 433.35 -7.92 C 431.04 -7.92 429.44 -8.53 429.44 -11.82 L 429.44 -20.35 L 436.43 -20.35 L 436.43 -29.15 Z M 440.94 0 L 451.06 0 L 451.06 -29.15 L 440.94 -29.15 Z M 451.22 -42.9 L 440.77 -42.9 L 440.77 -32.45 L 451.22 -32.45 Z M 469.09 0.77 C 478.72 0.77 483.12 -4.95 483.12 -13.47 L 483.12 -15.68 C 483.12 -24.2 478.72 -29.92 469.09 -29.92 C 459.47 -29.92 455.07 -24.2 455.07 -15.68 L 455.07 -13.47 C 455.07 -4.95 459.47 0.77 469.09 0.77 Z M 469.09 -7.92 C 466.34 -7.92 465.13 -9.9 465.13 -13.47 L 465.13 -15.68 C 465.13 -19.25 466.34 -21.23 469.09 -21.23 C 471.84 -21.23 473.06 -19.25 473.06 -15.68 L 473.06 -13.47 C 473.06 -9.9 471.84 -7.92 469.09 -7.92 Z M 514.8 0 L 514.8 -19.52 C 514.8 -24.75 512.6 -29.92 505.73 -29.92 C 501.38 -29.92 498.41 -28.11 496.49 -25.52 L 495.82 -29.15 L 486.69 -29.15 L 487.25 -20.9 L 487.25 0 L 497.37 0 L 497.37 -18.98 C 497.92 -19.8 499.4 -21.23 501.6 -21.23 C 504.35 -21.23 504.68 -19.25 504.68 -17.88 L 504.68 0 Z M 541.7 -42.9 L 531.25 -42.9 L 531.25 0 L 541.7 0 Z M 579.92 -42.9 L 570.02 -42.9 L 570.02 -27.5 L 570.3 -19.25 L 558.47 -42.9 L 547.47 -42.9 L 547.47 0 L 557.37 0 L 557.37 -15.4 L 557.1 -23.65 L 568.92 0 L 579.92 0 Z M 595.1 -20.35 L 595.1 -22.55 C 595.1 -29.98 595.87 -34.65 601.1 -34.65 L 601.65 -34.65 C 605.77 -34.65 606.6 -31.35 606.6 -26.4 L 617.05 -26.4 L 617.05 -28.55 C 617.05 -39.6 611.6 -43.67 601.1 -43.67 C 589.55 -43.67 584.49 -37.4 584.49 -22.55 L 584.49 -20.35 C 584.49 -5.5 589.55 0.77 601.1 0.77 C 611.6 0.77 617.05 -3.3 617.05 -14.36 L 617.05 -14.85 L 606.6 -14.85 C 606.6 -11 605.33 -8.25 601.65 -8.25 L 601.1 -8.25 C 595.87 -8.25 595.1 -12.93 595.1 -20.35 Z" stroke-linecap="round" />
</g>
</g>
</g>
<g transform="matrix(1.9211538461538462 0 0 1.9211538461538462 638.1455597616587 820.2248857918476)" id="tagline-5c73b8eb-8054-4532-ad72-1d8f2a86ffa8-logo"  >
<g style=""  paint-order="stroke"   >
		<g transform="matrix(1 0 0 1 0 0)" id="tagline-5c73b8eb-8054-4532-ad72-1d8f2a86ffa8-logo-path-0"  >
<filter id="SVGID_102660" y="-20%" height="140%" x="-21.959170878884056%" width="143.9183417577681%" >
	<feGaussianBlur in="SourceAlpha" stdDeviation="0"></feGaussianBlur>
	<feOffset dx="-5" dy="0" result="oBlur" ></feOffset>
	<feFlood flood-color="rgb(0,0,0)" flood-opacity="1"/>
	<feComposite in2="oBlur" operator="in" />
	<feMerge>
		<feMergeNode></feMergeNode>
		<feMergeNode in="SourceGraphic"></feMergeNode>
	</feMerge>
</filter>
<path style="stroke: rgb(255,255,255); stroke-width: 0; stroke-dasharray: none; stroke-linecap: butt; stroke-dashoffset: 0; stroke-linejoin: miter; stroke-miterlimit: 4; fill: rgb(7,42,138); fill-rule: nonzero; opacity: 1;filter: url(#SVGID_102660);"  paint-order="stroke"  transform=" translate(-129.965, 20.45)" d="M 2.36 -0.88 L 2.36 -0.88 Q 2.45 -2.15 2.88 -4.68 Q 3.3 -7.21 3.66 -8.45 L 3.66 -8.45 Q 6.9 -7.99 12.32 -7.51 L 12.32 -7.51 Q 15.26 -7.27 16.8 -7.27 L 16.8 -7.27 Q 18.07 -7.27 18.35 -7.45 L 18.35 -7.45 Q 18.71 -7.69 18.94 -8.28 Q 19.16 -8.87 19.16 -9.29 L 19.16 -9.29 Q 19.16 -10.26 18.25 -10.96 Q 17.35 -11.66 15.89 -12.14 Q 14.44 -12.62 12.7 -13.14 Q 10.96 -13.65 9.2 -14.5 Q 7.45 -15.35 5.99 -16.54 Q 4.54 -17.74 3.63 -19.81 Q 2.72 -21.89 2.72 -24.61 Q 2.72 -27.34 3.98 -29.99 Q 5.24 -32.63 6.51 -33.54 L 6.51 -33.54 Q 7.48 -34.21 10.6 -34.83 Q 13.71 -35.45 16.44 -35.45 L 16.44 -35.45 Q 23.46 -35.45 27.79 -34.15 L 27.79 -34.15 Q 27.58 -31.39 26.67 -26.79 L 26.67 -26.79 Q 25.52 -26.85 23.11 -27 Q 20.71 -27.16 19.62 -27.22 L 19.62 -27.22 Q 18.53 -27.31 17.01 -27.37 L 17.01 -27.37 Q 15.77 -27.43 15.05 -27.43 L 15.05 -27.43 Q 14.89 -27.43 14.8 -27.43 L 14.8 -27.43 Q 14.11 -27.43 13.9 -27.34 L 13.9 -27.34 Q 13.26 -26.94 13.26 -25.79 L 13.26 -25.79 Q 13.26 -24.79 14.18 -24.07 Q 15.11 -23.34 16.56 -22.84 Q 18.01 -22.34 19.78 -21.81 Q 21.55 -21.28 23.34 -20.46 Q 25.13 -19.65 26.58 -18.5 Q 28.03 -17.35 28.96 -15.38 Q 29.88 -13.41 29.88 -10.84 L 29.88 -10.84 Q 29.88 0.7 14.89 0.7 L 14.89 0.7 Q 12.44 0.7 8.87 0.27 Q 5.3 -0.15 2.36 -0.88 Z M 45.23 0 L 34.63 0 L 34.63 -28.52 L 45.23 -28.52 L 45.23 0 Z M 36.33 -33.48 Q 34.81 -34.91 34.81 -36.9 Q 34.81 -38.9 36.31 -40.31 Q 37.81 -41.72 39.96 -41.72 L 39.96 -41.72 Q 42.05 -41.72 43.55 -40.31 Q 45.05 -38.9 45.05 -36.9 Q 45.05 -34.91 43.55 -33.48 Q 42.05 -32.06 39.96 -32.06 L 39.96 -32.06 Q 37.84 -32.06 36.33 -33.48 Z M 61.09 0 L 50.5 0 L 50.5 -28.52 L 59.12 -28.52 L 60.3 -23.73 Q 64.75 -29.15 70.96 -29.15 L 70.96 -29.15 Q 73.14 -29.15 75.12 -28.52 Q 77.11 -27.88 78.08 -26.73 L 78.08 -26.73 Q 79.2 -25.43 79.2 -15.02 L 79.2 -15.02 L 79.2 0 L 68.6 0 L 68.6 -14.89 L 68.6 -17.41 Q 68.6 -19.38 68.3 -19.89 L 68.3 -19.89 Q 67.87 -20.53 66.03 -20.53 L 66.03 -20.53 Q 65.42 -20.53 64.69 -20.46 L 64.69 -20.46 Q 63.03 -20.37 61.09 -19.65 L 61.09 -19.65 L 61.09 0 Z M 83.04 -13.65 L 83.04 -13.65 Q 83.04 -17.32 84.04 -20.89 Q 85.04 -24.46 86.16 -25.67 L 86.16 -25.67 Q 87.43 -27.09 91.27 -28.09 Q 95.12 -29.09 99.18 -29.08 Q 103.23 -29.06 107.77 -28.34 L 107.77 -28.34 Q 107.44 -24.25 106.8 -21.01 L 106.8 -21.01 Q 103.6 -21.25 100.78 -21.25 L 100.78 -21.25 Q 100.05 -21.25 99.42 -21.25 L 99.42 -21.25 Q 96.24 -21.25 95.27 -20.89 L 95.27 -20.89 Q 94.76 -20.68 94.36 -18.35 Q 93.97 -16.01 93.97 -13.96 L 93.97 -13.96 Q 93.97 -10.54 95.32 -9.01 Q 96.66 -7.48 99.6 -7.27 L 99.6 -7.27 Q 100.63 -7.21 101.87 -7.21 L 101.87 -7.21 Q 104.17 -7.21 107.17 -7.45 L 107.17 -7.45 L 108.11 -0.88 Q 103.02 0.82 96.88 0.82 L 96.88 0.82 Q 89.91 0.82 86.48 -2.69 Q 83.04 -6.21 83.04 -13.65 Z M 110.5 -13.71 L 110.5 -13.71 Q 110.5 -17.41 111.47 -20.9 Q 112.44 -24.4 113.68 -25.73 L 113.68 -25.73 Q 114.95 -27.09 118.51 -28.09 Q 122.06 -29.09 125.51 -29.09 L 125.51 -29.09 Q 127.97 -29.09 129.89 -28.68 Q 131.81 -28.28 133.17 -27.58 Q 134.54 -26.88 135.49 -25.69 Q 136.44 -24.49 137 -23.22 Q 137.56 -21.95 137.88 -20.07 Q 138.2 -18.19 138.3 -16.42 Q 138.41 -14.65 138.41 -12.2 L 138.41 -12.2 Q 134.2 -11.96 130.15 -11.96 L 130.15 -11.96 L 121.37 -11.96 Q 121.4 -10.72 121.73 -9.88 Q 122.06 -9.05 122.59 -8.57 Q 123.12 -8.08 124.15 -7.84 Q 125.18 -7.6 126.19 -7.52 Q 127.21 -7.45 128.9 -7.45 L 128.9 -7.45 Q 130.21 -7.45 136.71 -7.87 L 136.71 -7.87 L 137.65 -1.48 Q 132.84 0.76 125.27 0.76 L 125.27 0.76 Q 118.16 0.76 114.33 -2.85 Q 110.5 -6.45 110.5 -13.71 Z M 121.15 -16.86 L 121.15 -16.86 L 124.39 -16.86 Q 127.3 -16.86 128.6 -16.92 L 128.6 -16.92 Q 128.6 -19.77 127.86 -21.02 Q 127.12 -22.28 125.27 -22.37 L 125.27 -22.37 Q 125.06 -22.37 124.88 -22.37 L 124.88 -22.37 Q 123.21 -22.37 121.97 -21.71 L 121.97 -21.71 Q 121.28 -21.28 121.15 -16.86 Z M 150.1 -24.79 L 148.92 -31.3 L 159.9 -35.33 L 168.62 -35.33 L 168.62 0 L 157.79 0 L 157.79 -26.4 L 150.1 -24.79 Z M 175.19 -23.31 L 175.19 -23.31 Q 175.19 -29.06 178.7 -32.42 Q 182.22 -35.78 189.39 -35.78 L 189.39 -35.78 Q 197.2 -35.78 200.76 -31.42 Q 204.32 -27.06 204.32 -18.29 L 204.32 -18.29 Q 204.32 -8.6 199.97 -3.81 Q 195.63 0.97 187.76 0.7 L 187.76 0.7 Q 181.85 0.51 178.79 -0.42 L 178.79 -0.42 L 179.95 -6.99 Q 183 -6.66 185.5 -6.77 Q 188 -6.87 189.8 -7.49 Q 191.6 -8.11 192.68 -9.78 Q 193.75 -11.44 193.96 -14.2 L 193.96 -14.2 Q 192.08 -13.11 189.98 -12.56 Q 187.88 -12.02 186.21 -12.02 L 186.21 -12.02 Q 183.37 -12.02 181.25 -12.87 Q 179.13 -13.71 178.01 -14.92 Q 176.89 -16.14 176.21 -17.8 Q 175.53 -19.47 175.36 -20.72 Q 175.19 -21.98 175.19 -23.31 Z M 185.42 -23.43 L 185.42 -23.43 Q 185.42 -21.28 186.21 -20.16 L 186.21 -20.16 Q 186.73 -19.53 189.25 -19.51 Q 191.78 -19.5 193.72 -20.04 L 193.72 -20.04 Q 193.96 -21.37 193.8 -22.81 Q 193.63 -24.25 193.24 -25.43 Q 192.84 -26.61 191.89 -27.38 Q 190.93 -28.15 189.63 -28.15 L 189.63 -28.15 Q 185.42 -28.15 185.42 -23.43 Z M 207.62 -23.31 L 207.62 -23.31 Q 207.62 -29.06 211.13 -32.42 Q 214.64 -35.78 221.81 -35.78 L 221.81 -35.78 Q 229.62 -35.78 233.18 -31.42 Q 236.74 -27.06 236.74 -18.29 L 236.74 -18.29 Q 236.74 -8.6 232.39 -3.81 Q 228.05 0.97 220.18 0.7 L 220.18 0.7 Q 214.28 0.51 211.22 -0.42 L 211.22 -0.42 L 212.37 -6.99 Q 215.43 -6.66 217.92 -6.77 Q 220.42 -6.87 222.22 -7.49 Q 224.02 -8.11 225.1 -9.78 Q 226.17 -11.44 226.38 -14.2 L 226.38 -14.2 Q 224.51 -13.11 222.4 -12.56 Q 220.3 -12.02 218.63 -12.02 L 218.63 -12.02 Q 215.79 -12.02 213.67 -12.87 Q 211.55 -13.71 210.43 -14.92 Q 209.31 -16.14 208.63 -17.8 Q 207.95 -19.47 207.78 -20.72 Q 207.62 -21.98 207.62 -23.31 Z M 217.85 -23.43 L 217.85 -23.43 Q 217.85 -21.28 218.63 -20.16 L 218.63 -20.16 Q 219.15 -19.53 221.68 -19.51 Q 224.21 -19.5 226.14 -20.04 L 226.14 -20.04 Q 226.38 -21.37 226.22 -22.81 Q 226.05 -24.25 225.66 -25.43 Q 225.26 -26.61 224.31 -27.38 Q 223.36 -28.15 222.06 -28.15 L 222.06 -28.15 Q 217.85 -28.15 217.85 -23.43 Z M 239.04 -24.79 L 237.86 -31.3 L 248.85 -35.33 L 257.57 -35.33 L 257.57 0 L 246.73 0 L 246.73 -26.4 L 239.04 -24.79 Z" stroke-linecap="round" />
</g>
</g>
</g>
</svg>